solid Rudder
   facet normal 1.251547e-01 9.921372e-01 0.000000e+00
      outer loop
         vertex 4.410887e+01 2.721628e+00 8.000000e+01
         vertex 4.410887e+01 2.721628e+00 1.665335e-13
         vertex 3.608705e+01 3.733551e+00 1.804112e-13
      endloop
   endfacet
   facet normal 1.251547e-01 9.921372e-01 0.000000e+00
      outer loop
         vertex 4.410887e+01 2.721628e+00 8.000000e+01
         vertex 3.608705e+01 3.733551e+00 1.804112e-13
         vertex 3.608705e+01 3.733551e+00 8.000000e+01
      endloop
   endfacet
   facet normal 1.000246e-01 9.949850e-01 0.000000e+00
      outer loop
         vertex 3.608705e+01 3.733551e+00 8.000000e+01
         vertex 3.608705e+01 3.733551e+00 1.804112e-13
         vertex 2.785338e+01 4.561273e+00 1.665335e-13
      endloop
   endfacet
   facet normal 1.000246e-01 9.949850e-01 0.000000e+00
      outer loop
         vertex 3.608705e+01 3.733551e+00 8.000000e+01
         vertex 2.785338e+01 4.561273e+00 1.665335e-13
         vertex 2.785338e+01 4.561273e+00 8.000000e+01
      endloop
   endfacet
   facet normal 7.217108e-02 9.973923e-01 0.000000e+00
      outer loop
         vertex 2.785338e+01 4.561273e+00 8.000000e+01
         vertex 2.785338e+01 4.561273e+00 1.665335e-13
         vertex 2.052703e+01 5.091406e+00 1.665335e-13
      endloop
   endfacet
   facet normal 7.217108e-02 9.973923e-01 0.000000e+00
      outer loop
         vertex 2.785338e+01 4.561273e+00 8.000000e+01
         vertex 2.052703e+01 5.091406e+00 1.665335e-13
         vertex 2.052703e+01 5.091406e+00 8.000000e+01
      endloop
   endfacet
   facet normal 3.889221e-02 9.992434e-01 0.000000e+00
      outer loop
         vertex 2.052703e+01 5.091406e+00 8.000000e+01
         vertex 2.052703e+01 5.091406e+00 1.665335e-13
         vertex 1.543261e+01 5.289689e+00 1.804112e-13
      endloop
   endfacet
   facet normal 3.889221e-02 9.992434e-01 0.000000e+00
      outer loop
         vertex 2.052703e+01 5.091406e+00 8.000000e+01
         vertex 1.543261e+01 5.289689e+00 1.804112e-13
         vertex 1.543261e+01 5.289689e+00 8.000000e+01
      endloop
   endfacet
   facet normal -2.666145e-04 1.000000e+00 0.000000e+00
      outer loop
         vertex 1.543261e+01 5.289689e+00 8.000000e+01
         vertex 1.543261e+01 5.289689e+00 1.804112e-13
         vertex 1.112993e+01 5.288542e+00 1.665335e-13
      endloop
   endfacet
   facet normal -2.666145e-04 1.000000e+00 0.000000e+00
      outer loop
         vertex 1.543261e+01 5.289689e+00 8.000000e+01
         vertex 1.112993e+01 5.288542e+00 1.665335e-13
         vertex 1.112993e+01 5.288542e+00 8.000000e+01
      endloop
   endfacet
   facet normal -4.122282e-02 9.991500e-01 0.000000e+00
      outer loop
         vertex 1.112993e+01 5.288542e+00 8.000000e+01
         vertex 1.112993e+01 5.288542e+00 1.665335e-13
         vertex 8.674845e+00 5.187250e+00 1.526557e-13
      endloop
   endfacet
   facet normal -4.122282e-02 9.991500e-01 0.000000e+00
      outer loop
         vertex 1.112993e+01 5.288542e+00 8.000000e+01
         vertex 8.674845e+00 5.187250e+00 1.526557e-13
         vertex 8.674845e+00 5.187250e+00 8.000000e+01
      endloop
   endfacet
   facet normal -8.849741e-02 9.960764e-01 0.000000e+00
      outer loop
         vertex 8.674845e+00 5.187250e+00 8.000000e+01
         vertex 8.674845e+00 5.187250e+00 1.526557e-13
         vertex 5.826820e+00 4.934214e+00 1.665335e-13
      endloop
   endfacet
   facet normal -8.849741e-02 9.960764e-01 0.000000e+00
      outer loop
         vertex 8.674845e+00 5.187250e+00 8.000000e+01
         vertex 5.826820e+00 4.934214e+00 1.665335e-13
         vertex 5.826820e+00 4.934214e+00 8.000000e+01
      endloop
   endfacet
   facet normal -1.577838e-01 9.874737e-01 0.000000e+00
      outer loop
         vertex 5.826820e+00 4.934214e+00 8.000000e+01
         vertex 5.826820e+00 4.934214e+00 1.665335e-13
         vertex 3.595240e+00 4.577640e+00 1.804112e-13
      endloop
   endfacet
   facet normal -1.577838e-01 9.874737e-01 0.000000e+00
      outer loop
         vertex 5.826820e+00 4.934214e+00 8.000000e+01
         vertex 3.595240e+00 4.577640e+00 1.804112e-13
         vertex 3.595240e+00 4.577640e+00 8.000000e+01
      endloop
   endfacet
   facet normal -2.487357e-01 9.685714e-01 0.000000e+00
      outer loop
         vertex 3.595240e+00 4.577640e+00 8.000000e+01
         vertex 3.595240e+00 4.577640e+00 1.804112e-13
         vertex 2.021421e+00 4.173473e+00 1.804112e-13
      endloop
   endfacet
   facet normal -2.487357e-01 9.685714e-01 0.000000e+00
      outer loop
         vertex 3.595240e+00 4.577640e+00 8.000000e+01
         vertex 2.021421e+00 4.173473e+00 1.804112e-13
         vertex 2.021421e+00 4.173473e+00 8.000000e+01
      endloop
   endfacet
   facet normal -3.656347e-01 9.307584e-01 0.000000e+00
      outer loop
         vertex 2.021421e+00 4.173473e+00 8.000000e+01
         vertex 2.021421e+00 4.173473e+00 1.804112e-13
         vertex 1.075398e+00 3.801842e+00 1.665335e-13
      endloop
   endfacet
   facet normal -3.656347e-01 9.307584e-01 0.000000e+00
      outer loop
         vertex 2.021421e+00 4.173473e+00 8.000000e+01
         vertex 1.075398e+00 3.801842e+00 1.665335e-13
         vertex 1.075398e+00 3.801842e+00 8.000000e+01
      endloop
   endfacet
   facet normal -4.966194e-01 8.679684e-01 0.000000e+00
      outer loop
         vertex 1.075398e+00 3.801842e+00 8.000000e+01
         vertex 1.075398e+00 3.801842e+00 1.665335e-13
         vertex 6.048903e-01 3.532635e+00 1.665335e-13
      endloop
   endfacet
   facet normal -4.966194e-01 8.679684e-01 0.000000e+00
      outer loop
         vertex 1.075398e+00 3.801842e+00 8.000000e+01
         vertex 6.048903e-01 3.532635e+00 1.665335e-13
         vertex 6.048903e-01 3.532635e+00 8.000000e+01
      endloop
   endfacet
   facet normal -6.201912e-01 7.844507e-01 0.000000e+00
      outer loop
         vertex 6.048903e-01 3.532635e+00 8.000000e+01
         vertex 6.048903e-01 3.532635e+00 1.665335e-13
         vertex 3.530197e-01 3.333504e+00 1.665335e-13
      endloop
   endfacet
   facet normal -6.201912e-01 7.844507e-01 0.000000e+00
      outer loop
         vertex 6.048903e-01 3.532635e+00 8.000000e+01
         vertex 3.530197e-01 3.333504e+00 1.665335e-13
         vertex 3.530197e-01 3.333504e+00 8.000000e+01
      endloop
   endfacet
   facet normal -7.316464e-01 6.816844e-01 0.000000e+00
      outer loop
         vertex 3.530197e-01 3.333504e+00 8.000000e+01
         vertex 3.530197e-01 3.333504e+00 1.665335e-13
         vertex 2.032481e-01 3.172756e+00 1.526557e-13
      endloop
   endfacet
   facet normal -7.316464e-01 6.816844e-01 0.000000e+00
      outer loop
         vertex 3.530197e-01 3.333504e+00 8.000000e+01
         vertex 2.032481e-01 3.172756e+00 1.526557e-13
         vertex 2.032481e-01 3.172756e+00 8.000000e+01
      endloop
   endfacet
   facet normal -8.260776e-01 5.635565e-01 0.000000e+00
      outer loop
         vertex 2.032481e-01 3.172756e+00 8.000000e+01
         vertex 2.032481e-01 3.172756e+00 1.526557e-13
         vertex 1.149811e-01 3.043371e+00 1.526557e-13
      endloop
   endfacet
   facet normal -8.260776e-01 5.635565e-01 0.000000e+00
      outer loop
         vertex 2.032481e-01 3.172756e+00 8.000000e+01
         vertex 1.149811e-01 3.043371e+00 1.526557e-13
         vertex 1.149811e-01 3.043371e+00 8.000000e+01
      endloop
   endfacet
   facet normal -9.016806e-01 4.324027e-01 0.000000e+00
      outer loop
         vertex 1.149811e-01 3.043371e+00 8.000000e+01
         vertex 1.149811e-01 3.043371e+00 1.526557e-13
         vertex 5.806237e-02 2.924680e+00 1.665335e-13
      endloop
   endfacet
   facet normal -9.016806e-01 4.324027e-01 0.000000e+00
      outer loop
         vertex 1.149811e-01 3.043371e+00 8.000000e+01
         vertex 5.806237e-02 2.924680e+00 1.665335e-13
         vertex 5.806237e-02 2.924680e+00 8.000000e+01
      endloop
   endfacet
   facet normal -9.577162e-01 2.877146e-01 0.000000e+00
      outer loop
         vertex 5.806237e-02 2.924680e+00 8.000000e+01
         vertex 5.806237e-02 2.924680e+00 1.665335e-13
         vertex 2.476200e-02 2.813833e+00 1.665335e-13
      endloop
   endfacet
   facet normal -9.577162e-01 2.877146e-01 0.000000e+00
      outer loop
         vertex 5.806237e-02 2.924680e+00 8.000000e+01
         vertex 2.476200e-02 2.813833e+00 1.665335e-13
         vertex 2.476200e-02 2.813833e+00 8.000000e+01
      endloop
   endfacet
   facet normal -9.921048e-01 1.254119e-01 0.000000e+00
      outer loop
         vertex 2.476200e-02 2.813833e+00 8.000000e+01
         vertex 2.476200e-02 2.813833e+00 1.665335e-13
         vertex 9.357929e-03 2.691975e+00 1.665335e-13
      endloop
   endfacet
   facet normal -9.921048e-01 1.254119e-01 0.000000e+00
      outer loop
         vertex 2.476200e-02 2.813833e+00 8.000000e+01
         vertex 9.357929e-03 2.691975e+00 1.665335e-13
         vertex 9.357929e-03 2.691975e+00 8.000000e+01
      endloop
   endfacet
   facet normal -9.992922e-01 -3.761806e-02 -0.000000e+00
      outer loop
         vertex 9.357929e-03 2.691975e+00 8.000000e+01
         vertex 9.357929e-03 2.691975e+00 1.665335e-13
         vertex 1.325458e-02 2.588463e+00 1.665335e-13
      endloop
   endfacet
   facet normal -9.992922e-01 -3.761806e-02 0.000000e+00
      outer loop
         vertex 9.357929e-03 2.691975e+00 8.000000e+01
         vertex 1.325458e-02 2.588463e+00 1.665335e-13
         vertex 1.325458e-02 2.588463e+00 8.000000e+01
      endloop
   endfacet
   facet normal -9.814972e-01 -1.914767e-01 -0.000000e+00
      outer loop
         vertex 1.325458e-02 2.588463e+00 8.000000e+01
         vertex 1.325458e-02 2.588463e+00 1.665335e-13
         vertex 3.511459e-02 2.476410e+00 1.665335e-13
      endloop
   endfacet
   facet normal -9.814972e-01 -1.914767e-01 0.000000e+00
      outer loop
         vertex 1.325458e-02 2.588463e+00 8.000000e+01
         vertex 3.511459e-02 2.476410e+00 1.665335e-13
         vertex 3.511459e-02 2.476410e+00 8.000000e+01
      endloop
   endfacet
   facet normal -9.392764e-01 -3.431615e-01 -0.000000e+00
      outer loop
         vertex 3.511459e-02 2.476410e+00 8.000000e+01
         vertex 3.511459e-02 2.476410e+00 1.665335e-13
         vertex 7.565320e-02 2.365451e+00 1.804112e-13
      endloop
   endfacet
   facet normal -9.392764e-01 -3.431615e-01 0.000000e+00
      outer loop
         vertex 3.511459e-02 2.476410e+00 8.000000e+01
         vertex 7.565320e-02 2.365451e+00 1.804112e-13
         vertex 7.565320e-02 2.365451e+00 8.000000e+01
      endloop
   endfacet
   facet normal -8.790527e-01 -4.767247e-01 -0.000000e+00
      outer loop
         vertex 7.565320e-02 2.365451e+00 8.000000e+01
         vertex 7.565320e-02 2.365451e+00 1.804112e-13
         vertex 1.370236e-01 2.252288e+00 1.665335e-13
      endloop
   endfacet
   facet normal -8.790527e-01 -4.767247e-01 0.000000e+00
      outer loop
         vertex 7.565320e-02 2.365451e+00 8.000000e+01
         vertex 1.370236e-01 2.252288e+00 1.665335e-13
         vertex 1.370236e-01 2.252288e+00 8.000000e+01
      endloop
   endfacet
   facet normal -7.960161e-01 -6.052755e-01 -0.000000e+00
      outer loop
         vertex 1.370236e-01 2.252288e+00 8.000000e+01
         vertex 1.370236e-01 2.252288e+00 1.665335e-13
         vertex 2.502166e-01 2.103424e+00 1.665335e-13
      endloop
   endfacet
   facet normal -7.960161e-01 -6.052755e-01 0.000000e+00
      outer loop
         vertex 1.370236e-01 2.252288e+00 8.000000e+01
         vertex 2.502166e-01 2.103424e+00 1.665335e-13
         vertex 2.502166e-01 2.103424e+00 8.000000e+01
      endloop
   endfacet
   facet normal -6.911358e-01 -7.227249e-01 -0.000000e+00
      outer loop
         vertex 2.502166e-01 2.103424e+00 8.000000e+01
         vertex 2.502166e-01 2.103424e+00 1.665335e-13
         vertex 4.337542e-01 1.927909e+00 1.526557e-13
      endloop
   endfacet
   facet normal -6.911358e-01 -7.227249e-01 0.000000e+00
      outer loop
         vertex 2.502166e-01 2.103424e+00 8.000000e+01
         vertex 4.337542e-01 1.927909e+00 1.526557e-13
         vertex 4.337542e-01 1.927909e+00 8.000000e+01
      endloop
   endfacet
   facet normal -5.715252e-01 -8.205845e-01 -0.000000e+00
      outer loop
         vertex 4.337542e-01 1.927909e+00 8.000000e+01
         vertex 4.337542e-01 1.927909e+00 1.526557e-13
         vertex 7.648245e-01 1.697323e+00 1.665335e-13
      endloop
   endfacet
   facet normal -5.715252e-01 -8.205845e-01 0.000000e+00
      outer loop
         vertex 4.337542e-01 1.927909e+00 8.000000e+01
         vertex 7.648245e-01 1.697323e+00 1.665335e-13
         vertex 7.648245e-01 1.697323e+00 8.000000e+01
      endloop
   endfacet
   facet normal -4.603843e-01 -8.877197e-01 -0.000000e+00
      outer loop
         vertex 7.648245e-01 1.697323e+00 8.000000e+01
         vertex 7.648245e-01 1.697323e+00 1.665335e-13
         vertex 1.200166e+00 1.471549e+00 1.665335e-13
      endloop
   endfacet
   facet normal -4.603843e-01 -8.877197e-01 0.000000e+00
      outer loop
         vertex 7.648245e-01 1.697323e+00 8.000000e+01
         vertex 1.200166e+00 1.471549e+00 1.665335e-13
         vertex 1.200166e+00 1.471549e+00 8.000000e+01
      endloop
   endfacet
   facet normal -3.389663e-01 -9.407985e-01 -0.000000e+00
      outer loop
         vertex 1.200166e+00 1.471549e+00 8.000000e+01
         vertex 1.200166e+00 1.471549e+00 1.665335e-13
         vertex 2.337873e+00 1.061637e+00 1.665335e-13
      endloop
   endfacet
   facet normal -3.389663e-01 -9.407985e-01 0.000000e+00
      outer loop
         vertex 1.200166e+00 1.471549e+00 8.000000e+01
         vertex 2.337873e+00 1.061637e+00 1.665335e-13
         vertex 2.337873e+00 1.061637e+00 8.000000e+01
      endloop
   endfacet
   facet normal -2.220947e-01 -9.750251e-01 -0.000000e+00
      outer loop
         vertex 2.337873e+00 1.061637e+00 8.000000e+01
         vertex 2.337873e+00 1.061637e+00 1.665335e-13
         vertex 4.174542e+00 6.432740e-01 1.804112e-13
      endloop
   endfacet
   facet normal -2.220947e-01 -9.750251e-01 0.000000e+00
      outer loop
         vertex 2.337873e+00 1.061637e+00 8.000000e+01
         vertex 4.174542e+00 6.432740e-01 1.804112e-13
         vertex 4.174542e+00 6.432740e-01 8.000000e+01
      endloop
   endfacet
   facet normal -1.338095e-01 -9.910071e-01 -0.000000e+00
      outer loop
         vertex 4.174542e+00 6.432740e-01 8.000000e+01
         vertex 4.174542e+00 6.432740e-01 1.804112e-13
         vertex 6.732382e+00 2.979049e-01 1.665335e-13
      endloop
   endfacet
   facet normal -1.338095e-01 -9.910071e-01 0.000000e+00
      outer loop
         vertex 4.174542e+00 6.432740e-01 8.000000e+01
         vertex 6.732382e+00 2.979049e-01 1.665335e-13
         vertex 6.732382e+00 2.979049e-01 8.000000e+01
      endloop
   endfacet
   facet normal -6.539541e-02 -9.978594e-01 -0.000000e+00
      outer loop
         vertex 6.732382e+00 2.979049e-01 8.000000e+01
         vertex 6.732382e+00 2.979049e-01 1.665335e-13
         vertex 1.016606e+01 7.287646e-02 1.665335e-13
      endloop
   endfacet
   facet normal -6.539541e-02 -9.978594e-01 0.000000e+00
      outer loop
         vertex 6.732382e+00 2.979049e-01 8.000000e+01
         vertex 1.016606e+01 7.287646e-02 1.665335e-13
         vertex 1.016606e+01 7.287646e-02 8.000000e+01
      endloop
   endfacet
   facet normal -2.752584e-02 -9.996211e-01 -0.000000e+00
      outer loop
         vertex 1.016606e+01 7.287646e-02 8.000000e+01
         vertex 1.016606e+01 7.287646e-02 1.665335e-13
         vertex 1.156550e+01 3.434112e-02 1.665335e-13
      endloop
   endfacet
   facet normal -2.752584e-02 -9.996211e-01 0.000000e+00
      outer loop
         vertex 1.016606e+01 7.287646e-02 8.000000e+01
         vertex 1.156550e+01 3.434112e-02 1.665335e-13
         vertex 1.156550e+01 3.434112e-02 8.000000e+01
      endloop
   endfacet
   facet normal 3.770601e-03 -9.999929e-01 0.000000e+00
      outer loop
         vertex 1.156550e+01 3.434112e-02 8.000000e+01
         vertex 1.156550e+01 3.434112e-02 1.665335e-13
         vertex 1.579354e+01 5.028350e-02 1.804112e-13
      endloop
   endfacet
   facet normal 3.770601e-03 -9.999929e-01 0.000000e+00
      outer loop
         vertex 1.156550e+01 3.434112e-02 8.000000e+01
         vertex 1.579354e+01 5.028350e-02 1.804112e-13
         vertex 1.579354e+01 5.028350e-02 8.000000e+01
      endloop
   endfacet
   facet normal 4.342234e-02 -9.990568e-01 0.000000e+00
      outer loop
         vertex 1.579354e+01 5.028350e-02 8.000000e+01
         vertex 1.579354e+01 5.028350e-02 1.804112e-13
         vertex 2.158272e+01 3.019006e-01 1.526557e-13
      endloop
   endfacet
   facet normal 4.342234e-02 -9.990568e-01 0.000000e+00
      outer loop
         vertex 1.579354e+01 5.028350e-02 8.000000e+01
         vertex 2.158272e+01 3.019006e-01 1.526557e-13
         vertex 2.158272e+01 3.019006e-01 8.000000e+01
      endloop
   endfacet
   facet normal 6.228124e-02 -9.980586e-01 0.000000e+00
      outer loop
         vertex 2.158272e+01 3.019006e-01 8.000000e+01
         vertex 2.158272e+01 3.019006e-01 1.526557e-13
         vertex 2.225174e+01 3.436489e-01 1.665335e-13
      endloop
   endfacet
   facet normal 6.228124e-02 -9.980586e-01 0.000000e+00
      outer loop
         vertex 2.158272e+01 3.019006e-01 8.000000e+01
         vertex 2.225174e+01 3.436489e-01 1.665335e-13
         vertex 2.225174e+01 3.436489e-01 8.000000e+01
      endloop
   endfacet
   facet normal 7.841764e-02 -9.969206e-01 0.000000e+00
      outer loop
         vertex 2.225174e+01 3.436489e-01 8.000000e+01
         vertex 2.225174e+01 3.436489e-01 1.665335e-13
         vertex 2.910016e+01 8.823442e-01 1.804112e-13
      endloop
   endfacet
   facet normal 7.841764e-02 -9.969206e-01 0.000000e+00
      outer loop
         vertex 2.225174e+01 3.436489e-01 8.000000e+01
         vertex 2.910016e+01 8.823442e-01 1.804112e-13
         vertex 2.910016e+01 8.823442e-01 8.000000e+01
      endloop
   endfacet
   facet normal 1.027029e-01 -9.947121e-01 0.000000e+00
      outer loop
         vertex 2.910016e+01 8.823442e-01 8.000000e+01
         vertex 2.910016e+01 8.823442e-01 1.804112e-13
         vertex 3.656983e+01 1.653579e+00 1.526557e-13
      endloop
   endfacet
   facet normal 1.027029e-01 -9.947121e-01 0.000000e+00
      outer loop
         vertex 2.910016e+01 8.823442e-01 8.000000e+01
         vertex 3.656983e+01 1.653579e+00 1.526557e-13
         vertex 3.656983e+01 1.653579e+00 8.000000e+01
      endloop
   endfacet
   facet normal 1.259179e-01 -9.920407e-01 0.000000e+00
      outer loop
         vertex 3.656983e+01 1.653579e+00 8.000000e+01
         vertex 3.656983e+01 1.653579e+00 1.526557e-13
         vertex 4.410887e+01 2.610496e+00 1.665335e-13
      endloop
   endfacet
   facet normal 1.259179e-01 -9.920407e-01 0.000000e+00
      outer loop
         vertex 3.656983e+01 1.653579e+00 8.000000e+01
         vertex 4.410887e+01 2.610496e+00 1.665335e-13
         vertex 4.410887e+01 2.610496e+00 8.000000e+01
      endloop
   endfacet
   facet normal 1.000000e+00 0.000000e+00 0.000000e+00
      outer loop
         vertex 4.410887e+01 2.721628e+00 8.000000e+01
         vertex 4.410887e+01 2.610496e+00 8.000000e+01
         vertex 4.410887e+01 2.721628e+00 0.000000e+00
      endloop
   endfacet
   facet normal 1.000000e+00 0.000000e+00 0.000000e+00
      outer loop
         vertex 4.410887e+01 2.721628e+00 0.000000e+00
         vertex 4.410887e+01 2.610496e+00 8.000000e+01
         vertex 4.410887e+01 2.610496e+00 0.000000e+00
      endloop
   endfacet
   facet normal -0.000000e+00 0.000000e+00 1.000000e+00
      outer loop
         vertex 8.751653e+00 3.481120e+00 8.000000e+01
         vertex 8.874912e+00 3.357863e+00 8.000000e+01
         vertex 1.112993e+01 5.288542e+00 8.000000e+01
      endloop
   endfacet
   facet normal 0.000000e+00 0.000000e+00 1.000000e+00
      outer loop
         vertex 7.935219e+00 1.730268e+00 8.000000e+01
         vertex 7.766847e+00 1.775383e+00 8.000000e+01
         vertex 6.732382e+00 2.979049e-01 8.000000e+01
      endloop
   endfacet
   facet normal 0.000000e+00 0.000000e+00 1.000000e+00
      outer loop
         vertex 2.052703e+01 5.091406e+00 8.000000e+01
         vertex 1.543261e+01 5.289689e+00 8.000000e+01
         vertex 9.048559e+00 3.057096e+00 8.000000e+01
      endloop
   endfacet
   facet normal 0.000000e+00 0.000000e+00 1.000000e+00
      outer loop
         vertex 2.225174e+01 3.436489e-01 8.000000e+01
         vertex 9.108864e+00 2.715076e+00 8.000000e+01
         vertex 2.158272e+01 3.019006e-01 8.000000e+01
      endloop
   endfacet
   facet normal 0.000000e+00 0.000000e+00 1.000000e+00
      outer loop
         vertex 2.158272e+01 3.019006e-01 8.000000e+01
         vertex 9.108864e+00 2.715076e+00 8.000000e+01
         vertex 9.093672e+00 2.541427e+00 8.000000e+01
      endloop
   endfacet
   facet normal 0.000000e+00 0.000000e+00 1.000000e+00
      outer loop
         vertex 2.158272e+01 3.019006e-01 8.000000e+01
         vertex 9.093672e+00 2.541427e+00 8.000000e+01
         vertex 1.579354e+01 5.028350e-02 8.000000e+01
      endloop
   endfacet
   facet normal 0.000000e+00 0.000000e+00 1.000000e+00
      outer loop
         vertex 1.579354e+01 5.028350e-02 8.000000e+01
         vertex 9.093672e+00 2.541427e+00 8.000000e+01
         vertex 9.048559e+00 2.373055e+00 8.000000e+01
      endloop
   endfacet
   facet normal 0.000000e+00 0.000000e+00 1.000000e+00
      outer loop
         vertex 1.579354e+01 5.028350e-02 8.000000e+01
         vertex 9.048559e+00 2.373055e+00 8.000000e+01
         vertex 1.156550e+01 3.434112e-02 8.000000e+01
      endloop
   endfacet
   facet normal 0.000000e+00 -0.000000e+00 1.000000e+00
      outer loop
         vertex 7.124059e+00 2.888724e+00 8.000000e+01
         vertex 7.169172e+00 3.057096e+00 8.000000e+01
         vertex 3.595240e+00 4.577640e+00 8.000000e+01
      endloop
   endfacet
   facet normal 0.000000e+00 0.000000e+00 1.000000e+00
      outer loop
         vertex 3.595240e+00 4.577640e+00 8.000000e+01
         vertex 7.169172e+00 3.057096e+00 8.000000e+01
         vertex 7.242840e+00 3.215076e+00 8.000000e+01
      endloop
   endfacet
   facet normal -0.000000e+00 0.000000e+00 1.000000e+00
      outer loop
         vertex 3.595240e+00 4.577640e+00 8.000000e+01
         vertex 7.242840e+00 3.215076e+00 8.000000e+01
         vertex 5.826820e+00 4.934214e+00 8.000000e+01
      endloop
   endfacet
   facet normal 0.000000e+00 0.000000e+00 1.000000e+00
      outer loop
         vertex 5.826820e+00 4.934214e+00 8.000000e+01
         vertex 7.242840e+00 3.215076e+00 8.000000e+01
         vertex 7.342823e+00 3.357863e+00 8.000000e+01
      endloop
   endfacet
   facet normal 0.000000e+00 0.000000e+00 1.000000e+00
      outer loop
         vertex 5.826820e+00 4.934214e+00 8.000000e+01
         vertex 7.342823e+00 3.357863e+00 8.000000e+01
         vertex 7.466078e+00 3.481120e+00 8.000000e+01
      endloop
   endfacet
   facet normal -0.000000e+00 0.000000e+00 1.000000e+00
      outer loop
         vertex 1.112993e+01 5.288542e+00 8.000000e+01
         vertex 8.874912e+00 3.357863e+00 8.000000e+01
         vertex 1.543261e+01 5.289689e+00 8.000000e+01
      endloop
   endfacet
   facet normal 0.000000e+00 0.000000e+00 1.000000e+00
      outer loop
         vertex 1.543261e+01 5.289689e+00 8.000000e+01
         vertex 8.874912e+00 3.357863e+00 8.000000e+01
         vertex 8.974891e+00 3.215076e+00 8.000000e+01
      endloop
   endfacet
   facet normal 0.000000e+00 0.000000e+00 1.000000e+00
      outer loop
         vertex 1.543261e+01 5.289689e+00 8.000000e+01
         vertex 8.974891e+00 3.215076e+00 8.000000e+01
         vertex 9.048559e+00 3.057096e+00 8.000000e+01
      endloop
   endfacet
   facet normal 0.000000e+00 0.000000e+00 1.000000e+00
      outer loop
         vertex 9.108864e+00 2.715076e+00 8.000000e+01
         vertex 4.410887e+01 2.721628e+00 8.000000e+01
         vertex 3.608705e+01 3.733551e+00 8.000000e+01
      endloop
   endfacet
   facet normal 0.000000e+00 -0.000000e+00 1.000000e+00
      outer loop
         vertex 4.410887e+01 2.610496e+00 8.000000e+01
         vertex 4.410887e+01 2.721628e+00 8.000000e+01
         vertex 3.656983e+01 1.653579e+00 8.000000e+01
      endloop
   endfacet
   facet normal 0.000000e+00 -0.000000e+00 1.000000e+00
      outer loop
         vertex 3.656983e+01 1.653579e+00 8.000000e+01
         vertex 4.410887e+01 2.721628e+00 8.000000e+01
         vertex 9.108864e+00 2.715076e+00 8.000000e+01
      endloop
   endfacet
   facet normal 0.000000e+00 0.000000e+00 1.000000e+00
      outer loop
         vertex 3.656983e+01 1.653579e+00 8.000000e+01
         vertex 9.108864e+00 2.715076e+00 8.000000e+01
         vertex 2.910016e+01 8.823442e-01 8.000000e+01
      endloop
   endfacet
   facet normal 0.000000e+00 0.000000e+00 1.000000e+00
      outer loop
         vertex 2.910016e+01 8.823442e-01 8.000000e+01
         vertex 9.108864e+00 2.715076e+00 8.000000e+01
         vertex 2.225174e+01 3.436489e-01 8.000000e+01
      endloop
   endfacet
   facet normal 0.000000e+00 0.000000e+00 1.000000e+00
      outer loop
         vertex 7.108867e+00 2.715076e+00 8.000000e+01
         vertex 1.325458e-02 2.588463e+00 8.000000e+01
         vertex 3.511459e-02 2.476410e+00 8.000000e+01
      endloop
   endfacet
   facet normal 0.000000e+00 0.000000e+00 1.000000e+00
      outer loop
         vertex 3.595240e+00 4.577640e+00 8.000000e+01
         vertex 2.021421e+00 4.173473e+00 8.000000e+01
         vertex 7.124059e+00 2.888724e+00 8.000000e+01
      endloop
   endfacet
   facet normal 0.000000e+00 0.000000e+00 1.000000e+00
      outer loop
         vertex 7.124059e+00 2.888724e+00 8.000000e+01
         vertex 2.021421e+00 4.173473e+00 8.000000e+01
         vertex 1.075398e+00 3.801842e+00 8.000000e+01
      endloop
   endfacet
   facet normal 0.000000e+00 0.000000e+00 1.000000e+00
      outer loop
         vertex 7.124059e+00 2.888724e+00 8.000000e+01
         vertex 1.075398e+00 3.801842e+00 8.000000e+01
         vertex 7.108867e+00 2.715076e+00 8.000000e+01
      endloop
   endfacet
   facet normal 0.000000e+00 0.000000e+00 1.000000e+00
      outer loop
         vertex 7.108867e+00 2.715076e+00 8.000000e+01
         vertex 1.075398e+00 3.801842e+00 8.000000e+01
         vertex 6.048903e-01 3.532635e+00 8.000000e+01
      endloop
   endfacet
   facet normal 0.000000e+00 0.000000e+00 1.000000e+00
      outer loop
         vertex 7.108867e+00 2.715076e+00 8.000000e+01
         vertex 6.048903e-01 3.532635e+00 8.000000e+01
         vertex 3.530197e-01 3.333504e+00 8.000000e+01
      endloop
   endfacet
   facet normal 0.000000e+00 0.000000e+00 1.000000e+00
      outer loop
         vertex 9.048559e+00 2.373055e+00 8.000000e+01
         vertex 8.974891e+00 2.215076e+00 8.000000e+01
         vertex 1.156550e+01 3.434112e-02 8.000000e+01
      endloop
   endfacet
   facet normal 0.000000e+00 0.000000e+00 1.000000e+00
      outer loop
         vertex 1.156550e+01 3.434112e-02 8.000000e+01
         vertex 8.974891e+00 2.215076e+00 8.000000e+01
         vertex 8.874912e+00 2.072288e+00 8.000000e+01
      endloop
   endfacet
   facet normal 0.000000e+00 0.000000e+00 1.000000e+00
      outer loop
         vertex 1.156550e+01 3.434112e-02 8.000000e+01
         vertex 8.874912e+00 2.072288e+00 8.000000e+01
         vertex 1.016606e+01 7.287646e-02 8.000000e+01
      endloop
   endfacet
   facet normal 0.000000e+00 0.000000e+00 1.000000e+00
      outer loop
         vertex 1.016606e+01 7.287646e-02 8.000000e+01
         vertex 8.874912e+00 2.072288e+00 8.000000e+01
         vertex 8.751653e+00 1.949031e+00 8.000000e+01
      endloop
   endfacet
   facet normal 0.000000e+00 0.000000e+00 1.000000e+00
      outer loop
         vertex 1.016606e+01 7.287646e-02 8.000000e+01
         vertex 8.751653e+00 1.949031e+00 8.000000e+01
         vertex 8.608866e+00 1.849050e+00 8.000000e+01
      endloop
   endfacet
   facet normal 0.000000e+00 0.000000e+00 1.000000e+00
      outer loop
         vertex 7.766847e+00 1.775383e+00 8.000000e+01
         vertex 7.608864e+00 1.849050e+00 8.000000e+01
         vertex 6.732382e+00 2.979049e-01 8.000000e+01
      endloop
   endfacet
   facet normal 0.000000e+00 0.000000e+00 1.000000e+00
      outer loop
         vertex 6.732382e+00 2.979049e-01 8.000000e+01
         vertex 7.608864e+00 1.849050e+00 8.000000e+01
         vertex 7.466078e+00 1.949031e+00 8.000000e+01
      endloop
   endfacet
   facet normal 0.000000e+00 -0.000000e+00 1.000000e+00
      outer loop
         vertex 6.732382e+00 2.979049e-01 8.000000e+01
         vertex 7.466078e+00 1.949031e+00 8.000000e+01
         vertex 4.174542e+00 6.432740e-01 8.000000e+01
      endloop
   endfacet
   facet normal -0.000000e+00 0.000000e+00 1.000000e+00
      outer loop
         vertex 3.511459e-02 2.476410e+00 8.000000e+01
         vertex 7.565320e-02 2.365451e+00 8.000000e+01
         vertex 7.108867e+00 2.715076e+00 8.000000e+01
      endloop
   endfacet
   facet normal 0.000000e+00 0.000000e+00 1.000000e+00
      outer loop
         vertex 7.108867e+00 2.715076e+00 8.000000e+01
         vertex 7.565320e-02 2.365451e+00 8.000000e+01
         vertex 1.370236e-01 2.252288e+00 8.000000e+01
      endloop
   endfacet
   facet normal 0.000000e+00 0.000000e+00 1.000000e+00
      outer loop
         vertex 7.108867e+00 2.715076e+00 8.000000e+01
         vertex 1.370236e-01 2.252288e+00 8.000000e+01
         vertex 2.502166e-01 2.103424e+00 8.000000e+01
      endloop
   endfacet
   facet normal 0.000000e+00 0.000000e+00 1.000000e+00
      outer loop
         vertex 3.530197e-01 3.333504e+00 8.000000e+01
         vertex 2.032481e-01 3.172756e+00 8.000000e+01
         vertex 7.108867e+00 2.715076e+00 8.000000e+01
      endloop
   endfacet
   facet normal 0.000000e+00 0.000000e+00 1.000000e+00
      outer loop
         vertex 7.108867e+00 2.715076e+00 8.000000e+01
         vertex 2.032481e-01 3.172756e+00 8.000000e+01
         vertex 1.149811e-01 3.043371e+00 8.000000e+01
      endloop
   endfacet
   facet normal 0.000000e+00 0.000000e+00 1.000000e+00
      outer loop
         vertex 7.108867e+00 2.715076e+00 8.000000e+01
         vertex 1.149811e-01 3.043371e+00 8.000000e+01
         vertex 5.806237e-02 2.924680e+00 8.000000e+01
      endloop
   endfacet
   facet normal 0.000000e+00 0.000000e+00 1.000000e+00
      outer loop
         vertex 3.608705e+01 3.733551e+00 8.000000e+01
         vertex 2.785338e+01 4.561273e+00 8.000000e+01
         vertex 9.108864e+00 2.715076e+00 8.000000e+01
      endloop
   endfacet
   facet normal 0.000000e+00 0.000000e+00 1.000000e+00
      outer loop
         vertex 9.108864e+00 2.715076e+00 8.000000e+01
         vertex 2.785338e+01 4.561273e+00 8.000000e+01
         vertex 2.052703e+01 5.091406e+00 8.000000e+01
      endloop
   endfacet
   facet normal 0.000000e+00 -0.000000e+00 1.000000e+00
      outer loop
         vertex 9.108864e+00 2.715076e+00 8.000000e+01
         vertex 2.052703e+01 5.091406e+00 8.000000e+01
         vertex 9.093672e+00 2.888724e+00 8.000000e+01
      endloop
   endfacet
   facet normal 0.000000e+00 -0.000000e+00 1.000000e+00
      outer loop
         vertex 9.093672e+00 2.888724e+00 8.000000e+01
         vertex 2.052703e+01 5.091406e+00 8.000000e+01
         vertex 9.048559e+00 3.057096e+00 8.000000e+01
      endloop
   endfacet
   facet normal 0.000000e+00 0.000000e+00 1.000000e+00
      outer loop
         vertex 8.608866e+00 1.849050e+00 8.000000e+01
         vertex 8.450884e+00 1.775383e+00 8.000000e+01
         vertex 1.016606e+01 7.287646e-02 8.000000e+01
      endloop
   endfacet
   facet normal 0.000000e+00 0.000000e+00 1.000000e+00
      outer loop
         vertex 1.016606e+01 7.287646e-02 8.000000e+01
         vertex 8.450884e+00 1.775383e+00 8.000000e+01
         vertex 8.282512e+00 1.730268e+00 8.000000e+01
      endloop
   endfacet
   facet normal 0.000000e+00 0.000000e+00 1.000000e+00
      outer loop
         vertex 1.016606e+01 7.287646e-02 8.000000e+01
         vertex 8.282512e+00 1.730268e+00 8.000000e+01
         vertex 6.732382e+00 2.979049e-01 8.000000e+01
      endloop
   endfacet
   facet normal 0.000000e+00 0.000000e+00 1.000000e+00
      outer loop
         vertex 6.732382e+00 2.979049e-01 8.000000e+01
         vertex 8.282512e+00 1.730268e+00 8.000000e+01
         vertex 8.108865e+00 1.715076e+00 8.000000e+01
      endloop
   endfacet
   facet normal 0.000000e+00 0.000000e+00 1.000000e+00
      outer loop
         vertex 6.732382e+00 2.979049e-01 8.000000e+01
         vertex 8.108865e+00 1.715076e+00 8.000000e+01
         vertex 7.935219e+00 1.730268e+00 8.000000e+01
      endloop
   endfacet
   facet normal -0.000000e+00 0.000000e+00 1.000000e+00
      outer loop
         vertex 2.502166e-01 2.103424e+00 8.000000e+01
         vertex 4.337542e-01 1.927909e+00 8.000000e+01
         vertex 7.108867e+00 2.715076e+00 8.000000e+01
      endloop
   endfacet
   facet normal 0.000000e+00 0.000000e+00 1.000000e+00
      outer loop
         vertex 7.108867e+00 2.715076e+00 8.000000e+01
         vertex 4.337542e-01 1.927909e+00 8.000000e+01
         vertex 7.648245e-01 1.697323e+00 8.000000e+01
      endloop
   endfacet
   facet normal 0.000000e+00 0.000000e+00 1.000000e+00
      outer loop
         vertex 7.108867e+00 2.715076e+00 8.000000e+01
         vertex 7.648245e-01 1.697323e+00 8.000000e+01
         vertex 7.124059e+00 2.541427e+00 8.000000e+01
      endloop
   endfacet
   facet normal 0.000000e+00 0.000000e+00 1.000000e+00
      outer loop
         vertex 7.124059e+00 2.541427e+00 8.000000e+01
         vertex 7.648245e-01 1.697323e+00 8.000000e+01
         vertex 1.200166e+00 1.471549e+00 8.000000e+01
      endloop
   endfacet
   facet normal 0.000000e+00 0.000000e+00 1.000000e+00
      outer loop
         vertex 7.124059e+00 2.541427e+00 8.000000e+01
         vertex 1.200166e+00 1.471549e+00 8.000000e+01
         vertex 7.169172e+00 2.373055e+00 8.000000e+01
      endloop
   endfacet
   facet normal 0.000000e+00 0.000000e+00 1.000000e+00
      outer loop
         vertex 7.169172e+00 2.373055e+00 8.000000e+01
         vertex 1.200166e+00 1.471549e+00 8.000000e+01
         vertex 2.337873e+00 1.061637e+00 8.000000e+01
      endloop
   endfacet
   facet normal 0.000000e+00 0.000000e+00 1.000000e+00
      outer loop
         vertex 7.169172e+00 2.373055e+00 8.000000e+01
         vertex 2.337873e+00 1.061637e+00 8.000000e+01
         vertex 7.242840e+00 2.215076e+00 8.000000e+01
      endloop
   endfacet
   facet normal 0.000000e+00 0.000000e+00 1.000000e+00
      outer loop
         vertex 7.242840e+00 2.215076e+00 8.000000e+01
         vertex 2.337873e+00 1.061637e+00 8.000000e+01
         vertex 4.174542e+00 6.432740e-01 8.000000e+01
      endloop
   endfacet
   facet normal 0.000000e+00 0.000000e+00 1.000000e+00
      outer loop
         vertex 7.242840e+00 2.215076e+00 8.000000e+01
         vertex 4.174542e+00 6.432740e-01 8.000000e+01
         vertex 7.342823e+00 2.072288e+00 8.000000e+01
      endloop
   endfacet
   facet normal 0.000000e+00 0.000000e+00 1.000000e+00
      outer loop
         vertex 7.342823e+00 2.072288e+00 8.000000e+01
         vertex 4.174542e+00 6.432740e-01 8.000000e+01
         vertex 7.466078e+00 1.949031e+00 8.000000e+01
      endloop
   endfacet
   facet normal 0.000000e+00 0.000000e+00 1.000000e+00
      outer loop
         vertex 5.806237e-02 2.924680e+00 8.000000e+01
         vertex 2.476200e-02 2.813833e+00 8.000000e+01
         vertex 7.108867e+00 2.715076e+00 8.000000e+01
      endloop
   endfacet
   facet normal 0.000000e+00 0.000000e+00 1.000000e+00
      outer loop
         vertex 7.108867e+00 2.715076e+00 8.000000e+01
         vertex 2.476200e-02 2.813833e+00 8.000000e+01
         vertex 9.357929e-03 2.691975e+00 8.000000e+01
      endloop
   endfacet
   facet normal 0.000000e+00 0.000000e+00 1.000000e+00
      outer loop
         vertex 7.108867e+00 2.715076e+00 8.000000e+01
         vertex 9.357929e-03 2.691975e+00 8.000000e+01
         vertex 1.325458e-02 2.588463e+00 8.000000e+01
      endloop
   endfacet
   facet normal 0.000000e+00 -0.000000e+00 1.000000e+00
      outer loop
         vertex 7.466078e+00 3.481120e+00 8.000000e+01
         vertex 7.608864e+00 3.581101e+00 8.000000e+01
         vertex 5.826820e+00 4.934214e+00 8.000000e+01
      endloop
   endfacet
   facet normal 0.000000e+00 0.000000e+00 1.000000e+00
      outer loop
         vertex 5.826820e+00 4.934214e+00 8.000000e+01
         vertex 7.608864e+00 3.581101e+00 8.000000e+01
         vertex 7.766847e+00 3.654768e+00 8.000000e+01
      endloop
   endfacet
   facet normal -0.000000e+00 0.000000e+00 1.000000e+00
      outer loop
         vertex 5.826820e+00 4.934214e+00 8.000000e+01
         vertex 7.766847e+00 3.654768e+00 8.000000e+01
         vertex 8.674845e+00 5.187250e+00 8.000000e+01
      endloop
   endfacet
   facet normal 0.000000e+00 0.000000e+00 1.000000e+00
      outer loop
         vertex 8.674845e+00 5.187250e+00 8.000000e+01
         vertex 7.766847e+00 3.654768e+00 8.000000e+01
         vertex 7.935219e+00 3.699883e+00 8.000000e+01
      endloop
   endfacet
   facet normal 0.000000e+00 0.000000e+00 1.000000e+00
      outer loop
         vertex 8.674845e+00 5.187250e+00 8.000000e+01
         vertex 7.935219e+00 3.699883e+00 8.000000e+01
         vertex 8.108865e+00 3.715076e+00 8.000000e+01
      endloop
   endfacet
   facet normal -0.000000e+00 0.000000e+00 1.000000e+00
      outer loop
         vertex 8.108865e+00 3.715076e+00 8.000000e+01
         vertex 8.282512e+00 3.699883e+00 8.000000e+01
         vertex 8.674845e+00 5.187250e+00 8.000000e+01
      endloop
   endfacet
   facet normal 0.000000e+00 0.000000e+00 1.000000e+00
      outer loop
         vertex 8.674845e+00 5.187250e+00 8.000000e+01
         vertex 8.282512e+00 3.699883e+00 8.000000e+01
         vertex 8.450884e+00 3.654768e+00 8.000000e+01
      endloop
   endfacet
   facet normal -0.000000e+00 0.000000e+00 1.000000e+00
      outer loop
         vertex 8.674845e+00 5.187250e+00 8.000000e+01
         vertex 8.450884e+00 3.654768e+00 8.000000e+01
         vertex 1.112993e+01 5.288542e+00 8.000000e+01
      endloop
   endfacet
   facet normal 0.000000e+00 0.000000e+00 1.000000e+00
      outer loop
         vertex 1.112993e+01 5.288542e+00 8.000000e+01
         vertex 8.450884e+00 3.654768e+00 8.000000e+01
         vertex 8.608866e+00 3.581101e+00 8.000000e+01
      endloop
   endfacet
   facet normal 0.000000e+00 0.000000e+00 1.000000e+00
      outer loop
         vertex 1.112993e+01 5.288542e+00 8.000000e+01
         vertex 8.608866e+00 3.581101e+00 8.000000e+01
         vertex 8.751653e+00 3.481120e+00 8.000000e+01
      endloop
   endfacet
   facet normal 0.000000e+00 -0.000000e+00 -1.000000e+00
      outer loop
         vertex 7.608864e+00 1.849050e+00 0.000000e+00
         vertex 7.766847e+00 1.775383e+00 0.000000e+00
         vertex 6.732382e+00 2.979049e-01 0.000000e+00
      endloop
   endfacet
   facet normal 0.000000e+00 -0.000000e+00 -1.000000e+00
      outer loop
         vertex 3.608705e+01 3.733551e+00 0.000000e+00
         vertex 4.410887e+01 2.721628e+00 0.000000e+00
         vertex 9.108864e+00 2.715076e+00 0.000000e+00
      endloop
   endfacet
   facet normal -0.000000e+00 0.000000e+00 -1.000000e+00
      outer loop
         vertex 3.608705e+01 3.733551e+00 0.000000e+00
         vertex 9.108864e+00 2.715076e+00 0.000000e+00
         vertex 2.785338e+01 4.561273e+00 0.000000e+00
      endloop
   endfacet
   facet normal 0.000000e+00 0.000000e+00 -1.000000e+00
      outer loop
         vertex 8.874912e+00 3.357863e+00 0.000000e+00
         vertex 1.112993e+01 5.288542e+00 0.000000e+00
         vertex 8.974891e+00 3.215076e+00 0.000000e+00
      endloop
   endfacet
   facet normal 0.000000e+00 0.000000e+00 -1.000000e+00
      outer loop
         vertex 8.974891e+00 3.215076e+00 0.000000e+00
         vertex 1.112993e+01 5.288542e+00 0.000000e+00
         vertex 1.543261e+01 5.289689e+00 0.000000e+00
      endloop
   endfacet
   facet normal 0.000000e+00 0.000000e+00 -1.000000e+00
      outer loop
         vertex 4.174542e+00 6.432740e-01 0.000000e+00
         vertex 2.337873e+00 1.061637e+00 0.000000e+00
         vertex 7.169172e+00 2.373055e+00 0.000000e+00
      endloop
   endfacet
   facet normal 0.000000e+00 0.000000e+00 -1.000000e+00
      outer loop
         vertex 9.108864e+00 2.715076e+00 0.000000e+00
         vertex 2.225174e+01 3.436489e-01 0.000000e+00
         vertex 2.158272e+01 3.019006e-01 0.000000e+00
      endloop
   endfacet
   facet normal -0.000000e+00 0.000000e+00 -1.000000e+00
      outer loop
         vertex 7.608864e+00 3.581101e+00 0.000000e+00
         vertex 7.466078e+00 3.481120e+00 0.000000e+00
         vertex 5.826820e+00 4.934214e+00 0.000000e+00
      endloop
   endfacet
   facet normal 0.000000e+00 0.000000e+00 -1.000000e+00
      outer loop
         vertex 5.826820e+00 4.934214e+00 0.000000e+00
         vertex 7.466078e+00 3.481120e+00 0.000000e+00
         vertex 7.342823e+00 3.357863e+00 0.000000e+00
      endloop
   endfacet
   facet normal 0.000000e+00 -0.000000e+00 -1.000000e+00
      outer loop
         vertex 5.826820e+00 4.934214e+00 0.000000e+00
         vertex 7.342823e+00 3.357863e+00 0.000000e+00
         vertex 3.595240e+00 4.577640e+00 0.000000e+00
      endloop
   endfacet
   facet normal -0.000000e+00 0.000000e+00 -1.000000e+00
      outer loop
         vertex 7.169172e+00 2.373055e+00 0.000000e+00
         vertex 2.337873e+00 1.061637e+00 0.000000e+00
         vertex 7.124059e+00 2.541427e+00 0.000000e+00
      endloop
   endfacet
   facet normal 0.000000e+00 0.000000e+00 -1.000000e+00
      outer loop
         vertex 7.124059e+00 2.541427e+00 0.000000e+00
         vertex 2.337873e+00 1.061637e+00 0.000000e+00
         vertex 1.200166e+00 1.471549e+00 0.000000e+00
      endloop
   endfacet
   facet normal -0.000000e+00 0.000000e+00 -1.000000e+00
      outer loop
         vertex 7.124059e+00 2.541427e+00 0.000000e+00
         vertex 1.200166e+00 1.471549e+00 0.000000e+00
         vertex 7.108867e+00 2.715076e+00 0.000000e+00
      endloop
   endfacet
   facet normal 0.000000e+00 0.000000e+00 -1.000000e+00
      outer loop
         vertex 7.108867e+00 2.715076e+00 0.000000e+00
         vertex 1.200166e+00 1.471549e+00 0.000000e+00
         vertex 7.648245e-01 1.697323e+00 0.000000e+00
      endloop
   endfacet
   facet normal 0.000000e+00 0.000000e+00 -1.000000e+00
      outer loop
         vertex 7.108867e+00 2.715076e+00 0.000000e+00
         vertex 7.648245e-01 1.697323e+00 0.000000e+00
         vertex 4.337542e-01 1.927909e+00 0.000000e+00
      endloop
   endfacet
   facet normal 0.000000e+00 0.000000e+00 -1.000000e+00
      outer loop
         vertex 7.565320e-02 2.365451e+00 0.000000e+00
         vertex 3.511459e-02 2.476410e+00 0.000000e+00
         vertex 7.108867e+00 2.715076e+00 0.000000e+00
      endloop
   endfacet
   facet normal 0.000000e+00 0.000000e+00 -1.000000e+00
      outer loop
         vertex 7.108867e+00 2.715076e+00 0.000000e+00
         vertex 3.511459e-02 2.476410e+00 0.000000e+00
         vertex 1.325458e-02 2.588463e+00 0.000000e+00
      endloop
   endfacet
   facet normal 0.000000e+00 0.000000e+00 -1.000000e+00
      outer loop
         vertex 7.108867e+00 2.715076e+00 0.000000e+00
         vertex 1.325458e-02 2.588463e+00 0.000000e+00
         vertex 9.357929e-03 2.691975e+00 0.000000e+00
      endloop
   endfacet
   facet normal 0.000000e+00 -0.000000e+00 -1.000000e+00
      outer loop
         vertex 4.410887e+01 2.721628e+00 0.000000e+00
         vertex 4.410887e+01 2.610496e+00 0.000000e+00
         vertex 3.656983e+01 1.653579e+00 0.000000e+00
      endloop
   endfacet
   facet normal 0.000000e+00 0.000000e+00 -1.000000e+00
      outer loop
         vertex 4.410887e+01 2.721628e+00 0.000000e+00
         vertex 3.656983e+01 1.653579e+00 0.000000e+00
         vertex 9.108864e+00 2.715076e+00 0.000000e+00
      endloop
   endfacet
   facet normal 0.000000e+00 0.000000e+00 -1.000000e+00
      outer loop
         vertex 9.108864e+00 2.715076e+00 0.000000e+00
         vertex 3.656983e+01 1.653579e+00 0.000000e+00
         vertex 2.910016e+01 8.823442e-01 0.000000e+00
      endloop
   endfacet
   facet normal 0.000000e+00 0.000000e+00 -1.000000e+00
      outer loop
         vertex 9.108864e+00 2.715076e+00 0.000000e+00
         vertex 2.910016e+01 8.823442e-01 0.000000e+00
         vertex 2.225174e+01 3.436489e-01 0.000000e+00
      endloop
   endfacet
   facet normal -0.000000e+00 0.000000e+00 -1.000000e+00
      outer loop
         vertex 2.785338e+01 4.561273e+00 0.000000e+00
         vertex 9.108864e+00 2.715076e+00 0.000000e+00
         vertex 2.052703e+01 5.091406e+00 0.000000e+00
      endloop
   endfacet
   facet normal 0.000000e+00 0.000000e+00 -1.000000e+00
      outer loop
         vertex 2.052703e+01 5.091406e+00 0.000000e+00
         vertex 9.108864e+00 2.715076e+00 0.000000e+00
         vertex 9.093672e+00 2.888724e+00 0.000000e+00
      endloop
   endfacet
   facet normal -0.000000e+00 0.000000e+00 -1.000000e+00
      outer loop
         vertex 2.052703e+01 5.091406e+00 0.000000e+00
         vertex 9.093672e+00 2.888724e+00 0.000000e+00
         vertex 1.543261e+01 5.289689e+00 0.000000e+00
      endloop
   endfacet
   facet normal 0.000000e+00 0.000000e+00 -1.000000e+00
      outer loop
         vertex 1.543261e+01 5.289689e+00 0.000000e+00
         vertex 9.093672e+00 2.888724e+00 0.000000e+00
         vertex 9.048559e+00 3.057096e+00 0.000000e+00
      endloop
   endfacet
   facet normal 0.000000e+00 0.000000e+00 -1.000000e+00
      outer loop
         vertex 1.543261e+01 5.289689e+00 0.000000e+00
         vertex 9.048559e+00 3.057096e+00 0.000000e+00
         vertex 8.974891e+00 3.215076e+00 0.000000e+00
      endloop
   endfacet
   facet normal -0.000000e+00 0.000000e+00 -1.000000e+00
      outer loop
         vertex 7.342823e+00 3.357863e+00 0.000000e+00
         vertex 7.242840e+00 3.215076e+00 0.000000e+00
         vertex 3.595240e+00 4.577640e+00 0.000000e+00
      endloop
   endfacet
   facet normal 0.000000e+00 0.000000e+00 -1.000000e+00
      outer loop
         vertex 3.595240e+00 4.577640e+00 0.000000e+00
         vertex 7.242840e+00 3.215076e+00 0.000000e+00
         vertex 7.169172e+00 3.057096e+00 0.000000e+00
      endloop
   endfacet
   facet normal 0.000000e+00 -0.000000e+00 -1.000000e+00
      outer loop
         vertex 3.595240e+00 4.577640e+00 0.000000e+00
         vertex 7.169172e+00 3.057096e+00 0.000000e+00
         vertex 2.021421e+00 4.173473e+00 0.000000e+00
      endloop
   endfacet
   facet normal 0.000000e+00 0.000000e+00 -1.000000e+00
      outer loop
         vertex 2.021421e+00 4.173473e+00 0.000000e+00
         vertex 7.169172e+00 3.057096e+00 0.000000e+00
         vertex 7.124059e+00 2.888724e+00 0.000000e+00
      endloop
   endfacet
   facet normal 0.000000e+00 0.000000e+00 -1.000000e+00
      outer loop
         vertex 1.149811e-01 3.043371e+00 0.000000e+00
         vertex 2.032481e-01 3.172756e+00 0.000000e+00
         vertex 7.108867e+00 2.715076e+00 0.000000e+00
      endloop
   endfacet
   facet normal 0.000000e+00 0.000000e+00 -1.000000e+00
      outer loop
         vertex 4.337542e-01 1.927909e+00 0.000000e+00
         vertex 2.502166e-01 2.103424e+00 0.000000e+00
         vertex 7.108867e+00 2.715076e+00 0.000000e+00
      endloop
   endfacet
   facet normal 0.000000e+00 0.000000e+00 -1.000000e+00
      outer loop
         vertex 7.108867e+00 2.715076e+00 0.000000e+00
         vertex 2.502166e-01 2.103424e+00 0.000000e+00
         vertex 1.370236e-01 2.252288e+00 0.000000e+00
      endloop
   endfacet
   facet normal 0.000000e+00 0.000000e+00 -1.000000e+00
      outer loop
         vertex 7.108867e+00 2.715076e+00 0.000000e+00
         vertex 1.370236e-01 2.252288e+00 0.000000e+00
         vertex 7.565320e-02 2.365451e+00 0.000000e+00
      endloop
   endfacet
   facet normal 0.000000e+00 -0.000000e+00 -1.000000e+00
      outer loop
         vertex 7.169172e+00 2.373055e+00 0.000000e+00
         vertex 7.242840e+00 2.215076e+00 0.000000e+00
         vertex 4.174542e+00 6.432740e-01 0.000000e+00
      endloop
   endfacet
   facet normal 0.000000e+00 0.000000e+00 -1.000000e+00
      outer loop
         vertex 4.174542e+00 6.432740e-01 0.000000e+00
         vertex 7.242840e+00 2.215076e+00 0.000000e+00
         vertex 7.342823e+00 2.072288e+00 0.000000e+00
      endloop
   endfacet
   facet normal 0.000000e+00 0.000000e+00 -1.000000e+00
      outer loop
         vertex 4.174542e+00 6.432740e-01 0.000000e+00
         vertex 7.342823e+00 2.072288e+00 0.000000e+00
         vertex 6.732382e+00 2.979049e-01 0.000000e+00
      endloop
   endfacet
   facet normal 0.000000e+00 0.000000e+00 -1.000000e+00
      outer loop
         vertex 6.732382e+00 2.979049e-01 0.000000e+00
         vertex 7.342823e+00 2.072288e+00 0.000000e+00
         vertex 7.466078e+00 1.949031e+00 0.000000e+00
      endloop
   endfacet
   facet normal 0.000000e+00 0.000000e+00 -1.000000e+00
      outer loop
         vertex 6.732382e+00 2.979049e-01 0.000000e+00
         vertex 7.466078e+00 1.949031e+00 0.000000e+00
         vertex 7.608864e+00 1.849050e+00 0.000000e+00
      endloop
   endfacet
   facet normal 0.000000e+00 0.000000e+00 -1.000000e+00
      outer loop
         vertex 8.450884e+00 1.775383e+00 0.000000e+00
         vertex 8.608866e+00 1.849050e+00 0.000000e+00
         vertex 1.016606e+01 7.287646e-02 0.000000e+00
      endloop
   endfacet
   facet normal 0.000000e+00 0.000000e+00 -1.000000e+00
      outer loop
         vertex 1.016606e+01 7.287646e-02 0.000000e+00
         vertex 8.608866e+00 1.849050e+00 0.000000e+00
         vertex 8.751653e+00 1.949031e+00 0.000000e+00
      endloop
   endfacet
   facet normal 0.000000e+00 0.000000e+00 -1.000000e+00
      outer loop
         vertex 1.016606e+01 7.287646e-02 0.000000e+00
         vertex 8.751653e+00 1.949031e+00 0.000000e+00
         vertex 1.156550e+01 3.434112e-02 0.000000e+00
      endloop
   endfacet
   facet normal 0.000000e+00 0.000000e+00 -1.000000e+00
      outer loop
         vertex 2.032481e-01 3.172756e+00 0.000000e+00
         vertex 3.530197e-01 3.333504e+00 0.000000e+00
         vertex 7.108867e+00 2.715076e+00 0.000000e+00
      endloop
   endfacet
   facet normal 0.000000e+00 0.000000e+00 -1.000000e+00
      outer loop
         vertex 7.108867e+00 2.715076e+00 0.000000e+00
         vertex 3.530197e-01 3.333504e+00 0.000000e+00
         vertex 6.048903e-01 3.532635e+00 0.000000e+00
      endloop
   endfacet
   facet normal 0.000000e+00 0.000000e+00 -1.000000e+00
      outer loop
         vertex 7.108867e+00 2.715076e+00 0.000000e+00
         vertex 6.048903e-01 3.532635e+00 0.000000e+00
         vertex 7.124059e+00 2.888724e+00 0.000000e+00
      endloop
   endfacet
   facet normal 0.000000e+00 0.000000e+00 -1.000000e+00
      outer loop
         vertex 7.124059e+00 2.888724e+00 0.000000e+00
         vertex 6.048903e-01 3.532635e+00 0.000000e+00
         vertex 1.075398e+00 3.801842e+00 0.000000e+00
      endloop
   endfacet
   facet normal 0.000000e+00 0.000000e+00 -1.000000e+00
      outer loop
         vertex 7.124059e+00 2.888724e+00 0.000000e+00
         vertex 1.075398e+00 3.801842e+00 0.000000e+00
         vertex 2.021421e+00 4.173473e+00 0.000000e+00
      endloop
   endfacet
   facet normal 0.000000e+00 -0.000000e+00 -1.000000e+00
      outer loop
         vertex 7.766847e+00 1.775383e+00 0.000000e+00
         vertex 7.935219e+00 1.730268e+00 0.000000e+00
         vertex 6.732382e+00 2.979049e-01 0.000000e+00
      endloop
   endfacet
   facet normal 0.000000e+00 0.000000e+00 -1.000000e+00
      outer loop
         vertex 6.732382e+00 2.979049e-01 0.000000e+00
         vertex 7.935219e+00 1.730268e+00 0.000000e+00
         vertex 8.108865e+00 1.715076e+00 0.000000e+00
      endloop
   endfacet
   facet normal 0.000000e+00 0.000000e+00 -1.000000e+00
      outer loop
         vertex 6.732382e+00 2.979049e-01 0.000000e+00
         vertex 8.108865e+00 1.715076e+00 0.000000e+00
         vertex 1.016606e+01 7.287646e-02 0.000000e+00
      endloop
   endfacet
   facet normal 0.000000e+00 0.000000e+00 -1.000000e+00
      outer loop
         vertex 1.016606e+01 7.287646e-02 0.000000e+00
         vertex 8.108865e+00 1.715076e+00 0.000000e+00
         vertex 8.282512e+00 1.730268e+00 0.000000e+00
      endloop
   endfacet
   facet normal 0.000000e+00 0.000000e+00 -1.000000e+00
      outer loop
         vertex 1.016606e+01 7.287646e-02 0.000000e+00
         vertex 8.282512e+00 1.730268e+00 0.000000e+00
         vertex 8.450884e+00 1.775383e+00 0.000000e+00
      endloop
   endfacet
   facet normal 0.000000e+00 0.000000e+00 -1.000000e+00
      outer loop
         vertex 8.751653e+00 1.949031e+00 0.000000e+00
         vertex 8.874912e+00 2.072288e+00 0.000000e+00
         vertex 1.156550e+01 3.434112e-02 0.000000e+00
      endloop
   endfacet
   facet normal 0.000000e+00 0.000000e+00 -1.000000e+00
      outer loop
         vertex 1.156550e+01 3.434112e-02 0.000000e+00
         vertex 8.874912e+00 2.072288e+00 0.000000e+00
         vertex 8.974891e+00 2.215076e+00 0.000000e+00
      endloop
   endfacet
   facet normal 0.000000e+00 0.000000e+00 -1.000000e+00
      outer loop
         vertex 1.156550e+01 3.434112e-02 0.000000e+00
         vertex 8.974891e+00 2.215076e+00 0.000000e+00
         vertex 1.579354e+01 5.028350e-02 0.000000e+00
      endloop
   endfacet
   facet normal 0.000000e+00 0.000000e+00 -1.000000e+00
      outer loop
         vertex 1.579354e+01 5.028350e-02 0.000000e+00
         vertex 8.974891e+00 2.215076e+00 0.000000e+00
         vertex 9.048559e+00 2.373055e+00 0.000000e+00
      endloop
   endfacet
   facet normal 0.000000e+00 0.000000e+00 -1.000000e+00
      outer loop
         vertex 1.579354e+01 5.028350e-02 0.000000e+00
         vertex 9.048559e+00 2.373055e+00 0.000000e+00
         vertex 2.158272e+01 3.019006e-01 0.000000e+00
      endloop
   endfacet
   facet normal 0.000000e+00 0.000000e+00 -1.000000e+00
      outer loop
         vertex 2.158272e+01 3.019006e-01 0.000000e+00
         vertex 9.048559e+00 2.373055e+00 0.000000e+00
         vertex 9.093672e+00 2.541427e+00 0.000000e+00
      endloop
   endfacet
   facet normal 0.000000e+00 0.000000e+00 -1.000000e+00
      outer loop
         vertex 2.158272e+01 3.019006e-01 0.000000e+00
         vertex 9.093672e+00 2.541427e+00 0.000000e+00
         vertex 9.108864e+00 2.715076e+00 0.000000e+00
      endloop
   endfacet
   facet normal 0.000000e+00 0.000000e+00 -1.000000e+00
      outer loop
         vertex 8.874912e+00 3.357863e+00 0.000000e+00
         vertex 8.751653e+00 3.481120e+00 0.000000e+00
         vertex 1.112993e+01 5.288542e+00 0.000000e+00
      endloop
   endfacet
   facet normal 0.000000e+00 0.000000e+00 -1.000000e+00
      outer loop
         vertex 1.112993e+01 5.288542e+00 0.000000e+00
         vertex 8.751653e+00 3.481120e+00 0.000000e+00
         vertex 8.608866e+00 3.581101e+00 0.000000e+00
      endloop
   endfacet
   facet normal 0.000000e+00 0.000000e+00 -1.000000e+00
      outer loop
         vertex 1.112993e+01 5.288542e+00 0.000000e+00
         vertex 8.608866e+00 3.581101e+00 0.000000e+00
         vertex 8.674845e+00 5.187250e+00 0.000000e+00
      endloop
   endfacet
   facet normal 0.000000e+00 0.000000e+00 -1.000000e+00
      outer loop
         vertex 8.674845e+00 5.187250e+00 0.000000e+00
         vertex 8.608866e+00 3.581101e+00 0.000000e+00
         vertex 8.450884e+00 3.654768e+00 0.000000e+00
      endloop
   endfacet
   facet normal 0.000000e+00 0.000000e+00 -1.000000e+00
      outer loop
         vertex 8.674845e+00 5.187250e+00 0.000000e+00
         vertex 8.450884e+00 3.654768e+00 0.000000e+00
         vertex 8.282512e+00 3.699883e+00 0.000000e+00
      endloop
   endfacet
   facet normal 0.000000e+00 0.000000e+00 -1.000000e+00
      outer loop
         vertex 8.282512e+00 3.699883e+00 0.000000e+00
         vertex 8.108865e+00 3.715076e+00 0.000000e+00
         vertex 8.674845e+00 5.187250e+00 0.000000e+00
      endloop
   endfacet
   facet normal 0.000000e+00 0.000000e+00 -1.000000e+00
      outer loop
         vertex 8.674845e+00 5.187250e+00 0.000000e+00
         vertex 8.108865e+00 3.715076e+00 0.000000e+00
         vertex 7.935219e+00 3.699883e+00 0.000000e+00
      endloop
   endfacet
   facet normal 0.000000e+00 0.000000e+00 -1.000000e+00
      outer loop
         vertex 8.674845e+00 5.187250e+00 0.000000e+00
         vertex 7.935219e+00 3.699883e+00 0.000000e+00
         vertex 5.826820e+00 4.934214e+00 0.000000e+00
      endloop
   endfacet
   facet normal 0.000000e+00 0.000000e+00 -1.000000e+00
      outer loop
         vertex 5.826820e+00 4.934214e+00 0.000000e+00
         vertex 7.935219e+00 3.699883e+00 0.000000e+00
         vertex 7.766847e+00 3.654768e+00 0.000000e+00
      endloop
   endfacet
   facet normal 0.000000e+00 0.000000e+00 -1.000000e+00
      outer loop
         vertex 5.826820e+00 4.934214e+00 0.000000e+00
         vertex 7.766847e+00 3.654768e+00 0.000000e+00
         vertex 7.608864e+00 3.581101e+00 0.000000e+00
      endloop
   endfacet
   facet normal 0.000000e+00 0.000000e+00 -1.000000e+00
      outer loop
         vertex 9.357929e-03 2.691975e+00 0.000000e+00
         vertex 2.476200e-02 2.813833e+00 0.000000e+00
         vertex 7.108867e+00 2.715076e+00 0.000000e+00
      endloop
   endfacet
   facet normal 0.000000e+00 0.000000e+00 -1.000000e+00
      outer loop
         vertex 7.108867e+00 2.715076e+00 0.000000e+00
         vertex 2.476200e-02 2.813833e+00 0.000000e+00
         vertex 5.806237e-02 2.924680e+00 0.000000e+00
      endloop
   endfacet
   facet normal 0.000000e+00 0.000000e+00 -1.000000e+00
      outer loop
         vertex 7.108867e+00 2.715076e+00 0.000000e+00
         vertex 5.806237e-02 2.924680e+00 0.000000e+00
         vertex 1.149811e-01 3.043371e+00 0.000000e+00
      endloop
   endfacet
   facet normal -9.961950e-01 -8.715282e-02 0.000000e+00
      outer loop
         vertex 9.108864e+00 2.715076e+00 0.000000e+00
         vertex 9.108864e+00 2.715076e+00 8.000000e+01
         vertex 9.093672e+00 2.888724e+00 0.000000e+00
      endloop
   endfacet
   facet normal -9.961950e-01 -8.715282e-02 0.000000e+00
      outer loop
         vertex 9.093672e+00 2.888724e+00 0.000000e+00
         vertex 9.108864e+00 2.715076e+00 8.000000e+01
         vertex 9.093672e+00 2.888724e+00 8.000000e+01
      endloop
   endfacet
   facet normal -9.659285e-01 -2.588090e-01 0.000000e+00
      outer loop
         vertex 9.093672e+00 2.888724e+00 0.000000e+00
         vertex 9.093672e+00 2.888724e+00 8.000000e+01
         vertex 9.048559e+00 3.057096e+00 0.000000e+00
      endloop
   endfacet
   facet normal -9.659285e-01 -2.588090e-01 0.000000e+00
      outer loop
         vertex 9.048559e+00 3.057096e+00 0.000000e+00
         vertex 9.093672e+00 2.888724e+00 8.000000e+01
         vertex 9.048559e+00 3.057096e+00 8.000000e+01
      endloop
   endfacet
   facet normal -9.063069e-01 -4.226201e-01 0.000000e+00
      outer loop
         vertex 9.048559e+00 3.057096e+00 0.000000e+00
         vertex 9.048559e+00 3.057096e+00 8.000000e+01
         vertex 8.974891e+00 3.215076e+00 0.000000e+00
      endloop
   endfacet
   facet normal -9.063069e-01 -4.226201e-01 0.000000e+00
      outer loop
         vertex 8.974891e+00 3.215076e+00 0.000000e+00
         vertex 9.048559e+00 3.057096e+00 8.000000e+01
         vertex 8.974891e+00 3.215076e+00 8.000000e+01
      endloop
   endfacet
   facet normal -8.191564e-01 -5.735703e-01 0.000000e+00
      outer loop
         vertex 8.974891e+00 3.215076e+00 0.000000e+00
         vertex 8.974891e+00 3.215076e+00 8.000000e+01
         vertex 8.874912e+00 3.357863e+00 0.000000e+00
      endloop
   endfacet
   facet normal -8.191564e-01 -5.735703e-01 0.000000e+00
      outer loop
         vertex 8.874912e+00 3.357863e+00 0.000000e+00
         vertex 8.974891e+00 3.215076e+00 8.000000e+01
         vertex 8.874912e+00 3.357863e+00 8.000000e+01
      endloop
   endfacet
   facet normal -7.071014e-01 -7.071121e-01 0.000000e+00
      outer loop
         vertex 8.874912e+00 3.357863e+00 0.000000e+00
         vertex 8.874912e+00 3.357863e+00 8.000000e+01
         vertex 8.751653e+00 3.481120e+00 0.000000e+00
      endloop
   endfacet
   facet normal -7.071014e-01 -7.071121e-01 0.000000e+00
      outer loop
         vertex 8.751653e+00 3.481120e+00 0.000000e+00
         vertex 8.874912e+00 3.357863e+00 8.000000e+01
         vertex 8.751653e+00 3.481120e+00 8.000000e+01
      endloop
   endfacet
   facet normal -5.735791e-01 -8.191502e-01 0.000000e+00
      outer loop
         vertex 8.751653e+00 3.481120e+00 0.000000e+00
         vertex 8.751653e+00 3.481120e+00 8.000000e+01
         vertex 8.608866e+00 3.581101e+00 0.000000e+00
      endloop
   endfacet
   facet normal -5.735791e-01 -8.191502e-01 0.000000e+00
      outer loop
         vertex 8.608866e+00 3.581101e+00 0.000000e+00
         vertex 8.751653e+00 3.481120e+00 8.000000e+01
         vertex 8.608866e+00 3.581101e+00 8.000000e+01
      endloop
   endfacet
   facet normal -4.226133e-01 -9.063101e-01 0.000000e+00
      outer loop
         vertex 8.608866e+00 3.581101e+00 0.000000e+00
         vertex 8.608866e+00 3.581101e+00 8.000000e+01
         vertex 8.450884e+00 3.654768e+00 0.000000e+00
      endloop
   endfacet
   facet normal -4.226133e-01 -9.063101e-01 0.000000e+00
      outer loop
         vertex 8.450884e+00 3.654768e+00 0.000000e+00
         vertex 8.608866e+00 3.581101e+00 8.000000e+01
         vertex 8.450884e+00 3.654768e+00 8.000000e+01
      endloop
   endfacet
   facet normal -2.588191e-01 -9.659258e-01 0.000000e+00
      outer loop
         vertex 8.450884e+00 3.654768e+00 0.000000e+00
         vertex 8.450884e+00 3.654768e+00 8.000000e+01
         vertex 8.282512e+00 3.699883e+00 0.000000e+00
      endloop
   endfacet
   facet normal -2.588191e-01 -9.659258e-01 0.000000e+00
      outer loop
         vertex 8.282512e+00 3.699883e+00 0.000000e+00
         vertex 8.450884e+00 3.654768e+00 8.000000e+01
         vertex 8.282512e+00 3.699883e+00 8.000000e+01
      endloop
   endfacet
   facet normal -8.715674e-02 -9.961946e-01 0.000000e+00
      outer loop
         vertex 8.282512e+00 3.699883e+00 0.000000e+00
         vertex 8.282512e+00 3.699883e+00 8.000000e+01
         vertex 8.108865e+00 3.715076e+00 0.000000e+00
      endloop
   endfacet
   facet normal -8.715674e-02 -9.961946e-01 0.000000e+00
      outer loop
         vertex 8.108865e+00 3.715076e+00 0.000000e+00
         vertex 8.282512e+00 3.699883e+00 8.000000e+01
         vertex 8.108865e+00 3.715076e+00 8.000000e+01
      endloop
   endfacet
   facet normal 8.715674e-02 -9.961946e-01 0.000000e+00
      outer loop
         vertex 8.108865e+00 3.715076e+00 0.000000e+00
         vertex 8.108865e+00 3.715076e+00 8.000000e+01
         vertex 7.935219e+00 3.699883e+00 0.000000e+00
      endloop
   endfacet
   facet normal 8.715674e-02 -9.961946e-01 0.000000e+00
      outer loop
         vertex 7.935219e+00 3.699883e+00 0.000000e+00
         vertex 8.108865e+00 3.715076e+00 8.000000e+01
         vertex 7.935219e+00 3.699883e+00 8.000000e+01
      endloop
   endfacet
   facet normal 2.588191e-01 -9.659258e-01 0.000000e+00
      outer loop
         vertex 7.935219e+00 3.699883e+00 0.000000e+00
         vertex 7.935219e+00 3.699883e+00 8.000000e+01
         vertex 7.766847e+00 3.654768e+00 0.000000e+00
      endloop
   endfacet
   facet normal 2.588191e-01 -9.659258e-01 0.000000e+00
      outer loop
         vertex 7.766847e+00 3.654768e+00 0.000000e+00
         vertex 7.935219e+00 3.699883e+00 8.000000e+01
         vertex 7.766847e+00 3.654768e+00 8.000000e+01
      endloop
   endfacet
   facet normal 4.226133e-01 -9.063101e-01 0.000000e+00
      outer loop
         vertex 7.766847e+00 3.654768e+00 0.000000e+00
         vertex 7.766847e+00 3.654768e+00 8.000000e+01
         vertex 7.608864e+00 3.581101e+00 0.000000e+00
      endloop
   endfacet
   facet normal 4.226133e-01 -9.063101e-01 0.000000e+00
      outer loop
         vertex 7.608864e+00 3.581101e+00 0.000000e+00
         vertex 7.766847e+00 3.654768e+00 8.000000e+01
         vertex 7.608864e+00 3.581101e+00 8.000000e+01
      endloop
   endfacet
   facet normal 5.735791e-01 -8.191502e-01 0.000000e+00
      outer loop
         vertex 7.608864e+00 3.581101e+00 0.000000e+00
         vertex 7.608864e+00 3.581101e+00 8.000000e+01
         vertex 7.466078e+00 3.481120e+00 0.000000e+00
      endloop
   endfacet
   facet normal 5.735791e-01 -8.191502e-01 0.000000e+00
      outer loop
         vertex 7.466078e+00 3.481120e+00 0.000000e+00
         vertex 7.608864e+00 3.581101e+00 8.000000e+01
         vertex 7.466078e+00 3.481120e+00 8.000000e+01
      endloop
   endfacet
   facet normal 7.071121e-01 -7.071014e-01 0.000000e+00
      outer loop
         vertex 7.466078e+00 3.481120e+00 0.000000e+00
         vertex 7.466078e+00 3.481120e+00 8.000000e+01
         vertex 7.342823e+00 3.357863e+00 0.000000e+00
      endloop
   endfacet
   facet normal 7.071121e-01 -7.071014e-01 0.000000e+00
      outer loop
         vertex 7.342823e+00 3.357863e+00 0.000000e+00
         vertex 7.466078e+00 3.481120e+00 8.000000e+01
         vertex 7.342823e+00 3.357863e+00 8.000000e+01
      endloop
   endfacet
   facet normal 8.191463e-01 -5.735846e-01 0.000000e+00
      outer loop
         vertex 7.342823e+00 3.357863e+00 0.000000e+00
         vertex 7.342823e+00 3.357863e+00 8.000000e+01
         vertex 7.242840e+00 3.215076e+00 0.000000e+00
      endloop
   endfacet
   facet normal 8.191463e-01 -5.735846e-01 0.000000e+00
      outer loop
         vertex 7.242840e+00 3.215076e+00 0.000000e+00
         vertex 7.342823e+00 3.357863e+00 8.000000e+01
         vertex 7.242840e+00 3.215076e+00 8.000000e+01
      endloop
   endfacet
   facet normal 9.063069e-01 -4.226201e-01 0.000000e+00
      outer loop
         vertex 7.242840e+00 3.215076e+00 0.000000e+00
         vertex 7.242840e+00 3.215076e+00 8.000000e+01
         vertex 7.169172e+00 3.057096e+00 0.000000e+00
      endloop
   endfacet
   facet normal 9.063069e-01 -4.226201e-01 0.000000e+00
      outer loop
         vertex 7.169172e+00 3.057096e+00 0.000000e+00
         vertex 7.242840e+00 3.215076e+00 8.000000e+01
         vertex 7.169172e+00 3.057096e+00 8.000000e+01
      endloop
   endfacet
   facet normal 9.659285e-01 -2.588090e-01 0.000000e+00
      outer loop
         vertex 7.169172e+00 3.057096e+00 0.000000e+00
         vertex 7.169172e+00 3.057096e+00 8.000000e+01
         vertex 7.124059e+00 2.888724e+00 0.000000e+00
      endloop
   endfacet
   facet normal 9.659285e-01 -2.588090e-01 0.000000e+00
      outer loop
         vertex 7.124059e+00 2.888724e+00 0.000000e+00
         vertex 7.169172e+00 3.057096e+00 8.000000e+01
         vertex 7.124059e+00 2.888724e+00 8.000000e+01
      endloop
   endfacet
   facet normal 9.961950e-01 -8.715282e-02 0.000000e+00
      outer loop
         vertex 7.124059e+00 2.888724e+00 0.000000e+00
         vertex 7.124059e+00 2.888724e+00 8.000000e+01
         vertex 7.108867e+00 2.715076e+00 0.000000e+00
      endloop
   endfacet
   facet normal 9.961950e-01 -8.715282e-02 0.000000e+00
      outer loop
         vertex 7.108867e+00 2.715076e+00 0.000000e+00
         vertex 7.124059e+00 2.888724e+00 8.000000e+01
         vertex 7.108867e+00 2.715076e+00 8.000000e+01
      endloop
   endfacet
   facet normal 9.961950e-01 8.715282e-02 -0.000000e+00
      outer loop
         vertex 7.108867e+00 2.715076e+00 0.000000e+00
         vertex 7.108867e+00 2.715076e+00 8.000000e+01
         vertex 7.124059e+00 2.541427e+00 0.000000e+00
      endloop
   endfacet
   facet normal 9.961950e-01 8.715282e-02 -0.000000e+00
      outer loop
         vertex 7.124059e+00 2.541427e+00 0.000000e+00
         vertex 7.108867e+00 2.715076e+00 8.000000e+01
         vertex 7.124059e+00 2.541427e+00 8.000000e+01
      endloop
   endfacet
   facet normal 9.659285e-01 2.588090e-01 -0.000000e+00
      outer loop
         vertex 7.124059e+00 2.541427e+00 0.000000e+00
         vertex 7.124059e+00 2.541427e+00 8.000000e+01
         vertex 7.169172e+00 2.373055e+00 0.000000e+00
      endloop
   endfacet
   facet normal 9.659285e-01 2.588090e-01 -0.000000e+00
      outer loop
         vertex 7.169172e+00 2.373055e+00 0.000000e+00
         vertex 7.124059e+00 2.541427e+00 8.000000e+01
         vertex 7.169172e+00 2.373055e+00 8.000000e+01
      endloop
   endfacet
   facet normal 9.063069e-01 4.226201e-01 -0.000000e+00
      outer loop
         vertex 7.169172e+00 2.373055e+00 0.000000e+00
         vertex 7.169172e+00 2.373055e+00 8.000000e+01
         vertex 7.242840e+00 2.215076e+00 0.000000e+00
      endloop
   endfacet
   facet normal 9.063069e-01 4.226201e-01 -0.000000e+00
      outer loop
         vertex 7.242840e+00 2.215076e+00 0.000000e+00
         vertex 7.169172e+00 2.373055e+00 8.000000e+01
         vertex 7.242840e+00 2.215076e+00 8.000000e+01
      endloop
   endfacet
   facet normal 8.191463e-01 5.735846e-01 -0.000000e+00
      outer loop
         vertex 7.242840e+00 2.215076e+00 0.000000e+00
         vertex 7.242840e+00 2.215076e+00 8.000000e+01
         vertex 7.342823e+00 2.072288e+00 0.000000e+00
      endloop
   endfacet
   facet normal 8.191463e-01 5.735846e-01 -0.000000e+00
      outer loop
         vertex 7.342823e+00 2.072288e+00 0.000000e+00
         vertex 7.242840e+00 2.215076e+00 8.000000e+01
         vertex 7.342823e+00 2.072288e+00 8.000000e+01
      endloop
   endfacet
   facet normal 7.071121e-01 7.071014e-01 -0.000000e+00
      outer loop
         vertex 7.342823e+00 2.072288e+00 0.000000e+00
         vertex 7.342823e+00 2.072288e+00 8.000000e+01
         vertex 7.466078e+00 1.949031e+00 0.000000e+00
      endloop
   endfacet
   facet normal 7.071121e-01 7.071014e-01 -0.000000e+00
      outer loop
         vertex 7.466078e+00 1.949031e+00 0.000000e+00
         vertex 7.342823e+00 2.072288e+00 8.000000e+01
         vertex 7.466078e+00 1.949031e+00 8.000000e+01
      endloop
   endfacet
   facet normal 5.735791e-01 8.191502e-01 -0.000000e+00
      outer loop
         vertex 7.466078e+00 1.949031e+00 0.000000e+00
         vertex 7.466078e+00 1.949031e+00 8.000000e+01
         vertex 7.608864e+00 1.849050e+00 0.000000e+00
      endloop
   endfacet
   facet normal 5.735791e-01 8.191502e-01 -0.000000e+00
      outer loop
         vertex 7.608864e+00 1.849050e+00 0.000000e+00
         vertex 7.466078e+00 1.949031e+00 8.000000e+01
         vertex 7.608864e+00 1.849050e+00 8.000000e+01
      endloop
   endfacet
   facet normal 4.226133e-01 9.063101e-01 -0.000000e+00
      outer loop
         vertex 7.608864e+00 1.849050e+00 0.000000e+00
         vertex 7.608864e+00 1.849050e+00 8.000000e+01
         vertex 7.766847e+00 1.775383e+00 0.000000e+00
      endloop
   endfacet
   facet normal 4.226133e-01 9.063101e-01 -0.000000e+00
      outer loop
         vertex 7.766847e+00 1.775383e+00 0.000000e+00
         vertex 7.608864e+00 1.849050e+00 8.000000e+01
         vertex 7.766847e+00 1.775383e+00 8.000000e+01
      endloop
   endfacet
   facet normal 2.588191e-01 9.659258e-01 -0.000000e+00
      outer loop
         vertex 7.766847e+00 1.775383e+00 0.000000e+00
         vertex 7.766847e+00 1.775383e+00 8.000000e+01
         vertex 7.935219e+00 1.730268e+00 0.000000e+00
      endloop
   endfacet
   facet normal 2.588191e-01 9.659258e-01 -0.000000e+00
      outer loop
         vertex 7.935219e+00 1.730268e+00 0.000000e+00
         vertex 7.766847e+00 1.775383e+00 8.000000e+01
         vertex 7.935219e+00 1.730268e+00 8.000000e+01
      endloop
   endfacet
   facet normal 8.715674e-02 9.961946e-01 -0.000000e+00
      outer loop
         vertex 7.935219e+00 1.730268e+00 0.000000e+00
         vertex 7.935219e+00 1.730268e+00 8.000000e+01
         vertex 8.108865e+00 1.715076e+00 0.000000e+00
      endloop
   endfacet
   facet normal 8.715674e-02 9.961946e-01 -0.000000e+00
      outer loop
         vertex 8.108865e+00 1.715076e+00 0.000000e+00
         vertex 7.935219e+00 1.730268e+00 8.000000e+01
         vertex 8.108865e+00 1.715076e+00 8.000000e+01
      endloop
   endfacet
   facet normal -8.715674e-02 9.961946e-01 0.000000e+00
      outer loop
         vertex 8.108865e+00 1.715076e+00 0.000000e+00
         vertex 8.108865e+00 1.715076e+00 8.000000e+01
         vertex 8.282512e+00 1.730268e+00 0.000000e+00
      endloop
   endfacet
   facet normal -8.715674e-02 9.961946e-01 0.000000e+00
      outer loop
         vertex 8.282512e+00 1.730268e+00 0.000000e+00
         vertex 8.108865e+00 1.715076e+00 8.000000e+01
         vertex 8.282512e+00 1.730268e+00 8.000000e+01
      endloop
   endfacet
   facet normal -2.588191e-01 9.659258e-01 0.000000e+00
      outer loop
         vertex 8.282512e+00 1.730268e+00 0.000000e+00
         vertex 8.282512e+00 1.730268e+00 8.000000e+01
         vertex 8.450884e+00 1.775383e+00 0.000000e+00
      endloop
   endfacet
   facet normal -2.588191e-01 9.659258e-01 0.000000e+00
      outer loop
         vertex 8.450884e+00 1.775383e+00 0.000000e+00
         vertex 8.282512e+00 1.730268e+00 8.000000e+01
         vertex 8.450884e+00 1.775383e+00 8.000000e+01
      endloop
   endfacet
   facet normal -4.226133e-01 9.063101e-01 0.000000e+00
      outer loop
         vertex 8.450884e+00 1.775383e+00 0.000000e+00
         vertex 8.450884e+00 1.775383e+00 8.000000e+01
         vertex 8.608866e+00 1.849050e+00 0.000000e+00
      endloop
   endfacet
   facet normal -4.226133e-01 9.063101e-01 0.000000e+00
      outer loop
         vertex 8.608866e+00 1.849050e+00 0.000000e+00
         vertex 8.450884e+00 1.775383e+00 8.000000e+01
         vertex 8.608866e+00 1.849050e+00 8.000000e+01
      endloop
   endfacet
   facet normal -5.735791e-01 8.191502e-01 0.000000e+00
      outer loop
         vertex 8.608866e+00 1.849050e+00 0.000000e+00
         vertex 8.608866e+00 1.849050e+00 8.000000e+01
         vertex 8.751653e+00 1.949031e+00 0.000000e+00
      endloop
   endfacet
   facet normal -5.735791e-01 8.191502e-01 0.000000e+00
      outer loop
         vertex 8.751653e+00 1.949031e+00 0.000000e+00
         vertex 8.608866e+00 1.849050e+00 8.000000e+01
         vertex 8.751653e+00 1.949031e+00 8.000000e+01
      endloop
   endfacet
   facet normal -7.071014e-01 7.071121e-01 0.000000e+00
      outer loop
         vertex 8.751653e+00 1.949031e+00 0.000000e+00
         vertex 8.751653e+00 1.949031e+00 8.000000e+01
         vertex 8.874912e+00 2.072288e+00 0.000000e+00
      endloop
   endfacet
   facet normal -7.071014e-01 7.071121e-01 0.000000e+00
      outer loop
         vertex 8.874912e+00 2.072288e+00 0.000000e+00
         vertex 8.751653e+00 1.949031e+00 8.000000e+01
         vertex 8.874912e+00 2.072288e+00 8.000000e+01
      endloop
   endfacet
   facet normal -8.191564e-01 5.735703e-01 0.000000e+00
      outer loop
         vertex 8.874912e+00 2.072288e+00 0.000000e+00
         vertex 8.874912e+00 2.072288e+00 8.000000e+01
         vertex 8.974891e+00 2.215076e+00 0.000000e+00
      endloop
   endfacet
   facet normal -8.191564e-01 5.735703e-01 0.000000e+00
      outer loop
         vertex 8.974891e+00 2.215076e+00 0.000000e+00
         vertex 8.874912e+00 2.072288e+00 8.000000e+01
         vertex 8.974891e+00 2.215076e+00 8.000000e+01
      endloop
   endfacet
   facet normal -9.063069e-01 4.226201e-01 0.000000e+00
      outer loop
         vertex 8.974891e+00 2.215076e+00 0.000000e+00
         vertex 8.974891e+00 2.215076e+00 8.000000e+01
         vertex 9.048559e+00 2.373055e+00 0.000000e+00
      endloop
   endfacet
   facet normal -9.063069e-01 4.226201e-01 0.000000e+00
      outer loop
         vertex 9.048559e+00 2.373055e+00 0.000000e+00
         vertex 8.974891e+00 2.215076e+00 8.000000e+01
         vertex 9.048559e+00 2.373055e+00 8.000000e+01
      endloop
   endfacet
   facet normal -9.659285e-01 2.588090e-01 0.000000e+00
      outer loop
         vertex 9.048559e+00 2.373055e+00 0.000000e+00
         vertex 9.048559e+00 2.373055e+00 8.000000e+01
         vertex 9.093672e+00 2.541427e+00 0.000000e+00
      endloop
   endfacet
   facet normal -9.659285e-01 2.588090e-01 0.000000e+00
      outer loop
         vertex 9.093672e+00 2.541427e+00 0.000000e+00
         vertex 9.048559e+00 2.373055e+00 8.000000e+01
         vertex 9.093672e+00 2.541427e+00 8.000000e+01
      endloop
   endfacet
   facet normal -9.961950e-01 8.715282e-02 0.000000e+00
      outer loop
         vertex 9.093672e+00 2.541427e+00 0.000000e+00
         vertex 9.093672e+00 2.541427e+00 8.000000e+01
         vertex 9.108864e+00 2.715076e+00 0.000000e+00
      endloop
   endfacet
   facet normal -9.961950e-01 8.715282e-02 0.000000e+00
      outer loop
         vertex 9.108864e+00 2.715076e+00 0.000000e+00
         vertex 9.093672e+00 2.541427e+00 8.000000e+01
         vertex 9.108864e+00 2.715076e+00 8.000000e+01
      endloop
   endfacet
endsolid